<svg width="227" height="69" viewBox="0 0 227 69" fill="none" xmlns="http://www.w3.org/2000/svg">
<g clip-path="url(#clip0_97_34)">
<path d="M208.126 33.4778H200.219C195.118 33.4778 192.312 37.3111 192.312 43.9556V67.7222H177.009V33.4778H170.633C165.531 33.4778 162.726 37.3111 162.726 43.9556V67.7222H147.422V20.7H162.726V27.8556C165.276 22.2333 168.592 20.7 173.693 20.7H192.312V27.8556C194.863 22.2333 198.179 20.7 203.28 20.7H208.381L208.126 33.4778ZM143.852 47.7889H112.225C112.99 53.1556 116.306 55.9667 121.662 55.9667C125.743 55.9667 128.548 54.1778 129.569 51.3667L143.087 55.2C139.771 63.3778 131.609 68.2333 121.662 68.2333C105.083 68.2333 97.4315 55.2 97.4315 43.9556C97.4315 32.9667 104.063 19.9333 120.642 19.9333C138.24 19.9333 144.107 33.2222 144.107 43.1889C144.107 45.4889 144.107 46.7667 143.852 47.7889ZM129.313 38.8444C129.058 34.7556 125.998 31.1778 120.897 31.1778C116.051 31.1778 113.245 33.2222 112.225 38.8444H129.313ZM70.9056 67.7222H84.1685L101.002 20.9556H85.6989L77.5371 48.3L69.3753 20.7H54.0719L70.9056 67.7222ZM8.67192 67.7222H23.7202V33.4778H38.2584V67.7222H53.3067V20.7H23.7202V17.8889C23.7202 14.8222 26.0157 12.7778 29.3315 12.7778H38.2584V0H27.036C16.0685 0 8.67192 6.9 8.67192 16.8667V20.7H0V33.4778H8.67192V67.7222Z" fill="white"/>
<path d="M217.563 69C222.664 69 227 64.6555 227 59.5444C227 54.4333 222.664 50.0889 217.563 50.0889C212.462 50.0889 208.126 54.4333 208.126 59.5444C208.126 64.6555 212.462 69 217.563 69Z" fill="white"/>
</g>
<defs>
<clipPath id="clip0_97_34">
<rect width="227" height="69" fill="white"/>
</clipPath>
</defs>
</svg>
