<svg width="379" height="62" viewBox="0 0 379 62" fill="none" xmlns="http://www.w3.org/2000/svg">
<mask id="mask0_97_15" style="mask-type:luminance" maskUnits="userSpaceOnUse" x="0" y="0" width="377" height="62">
<path d="M376.589 0H0V62H376.589V0Z" fill="white"/>
</mask>
<g mask="url(#mask0_97_15)">
<path d="M55.2399 42.852L44.9311 13.594H33.82L23.3408 42.852L14.3449 13.594H0L16.7033 60.5628H29.7353L39.3876 32.133L49.4046 60.5628H61.8773L78.7508 13.594H64.3088L55.2399 42.852Z" fill="#002D72"/>
<path d="M149.697 16.5412V13.5935H136.883V60.5624H149.697V36.8342C149.697 32.3518 150.572 29.8181 152.687 28.0886C155.24 26.0423 159.762 25.0677 166.959 25.0677H167.494V12.6921H167.032C158.304 12.6921 153.927 13.6666 149.697 16.5412Z" fill="#002D72"/>
<path d="M255.752 16.5168C252.159 13.9484 247.837 12.6073 243.425 12.692C236.853 12.6712 230.538 15.2443 225.846 19.8543C223.541 22.1219 221.711 24.8269 220.461 27.8113C219.212 30.7958 218.568 33.9997 218.568 37.2361C218.568 40.4727 219.212 43.6766 220.461 46.6611C221.711 49.6454 223.541 52.3504 225.846 54.618C228.156 56.9368 230.9 58.7759 233.921 60.0301C236.941 61.284 240.179 61.9286 243.449 61.9265C247.858 62.0412 252.185 60.7157 255.776 58.1505V60.5865H268.59V13.5934H255.752V16.5168ZM252.153 28.6974C253.286 29.8095 254.188 31.1358 254.805 32.5995C255.423 34.0629 255.745 35.6349 255.752 37.2239C255.745 38.824 255.424 40.4068 254.806 41.8824C254.189 43.358 253.287 44.6972 252.153 45.8236C251.016 46.9863 249.657 47.9086 248.158 48.5363C246.659 49.1638 245.049 49.4842 243.425 49.4777C240.214 49.4338 237.147 48.1362 234.877 45.8613C232.607 43.5864 231.312 40.5138 231.268 37.297C231.248 34.8573 231.96 32.468 233.311 30.4385C234.662 28.4088 236.591 26.8327 238.846 25.9138C241.102 24.9951 243.581 24.7762 245.962 25.2856C248.343 25.7949 250.517 27.0089 252.202 28.7705L252.153 28.6974Z" fill="#002D72"/>
<path d="M315.222 17.565C311.541 14.2395 306.706 12.4906 301.754 12.6928C297.543 12.5586 293.421 13.9125 290.108 16.5175V13.5941H277.268V60.5629H290.108V35.2759C289.961 33.7755 290.136 32.2614 290.618 30.8334C291.098 29.4056 291.879 28.0966 292.903 26.993C294.733 25.7252 296.904 25.0461 299.126 25.0461C301.351 25.0461 303.522 25.7252 305.35 26.993C306.382 28.1222 307.165 29.4564 307.645 30.9088C308.127 32.3611 308.3 33.899 308.148 35.4219V60.5143H320.985V33.5461C321.183 30.6275 320.776 27.6993 319.783 24.9478C318.791 22.1964 317.239 19.6822 315.222 17.565Z" fill="#002D72"/>
<path d="M363.776 13.5934V16.5168C360.184 13.9484 355.86 12.6073 351.449 12.692C344.869 12.6477 338.542 15.2139 333.845 19.8299C331.542 22.0975 329.712 24.8025 328.462 27.787C327.211 30.7713 326.569 33.9754 326.569 37.2118C326.569 40.4482 327.211 43.6523 328.462 46.6366C329.712 49.6211 331.542 52.3261 333.845 54.5937C336.155 56.9125 338.901 58.7516 341.92 60.0056C344.942 61.2598 348.18 61.9043 351.449 61.902C355.858 62.0133 360.184 60.6883 363.776 58.1262V60.5623H376.589V13.5934H363.776ZM363.776 37.2239C363.776 40.4869 362.481 43.6161 360.179 45.9233C357.877 48.2305 354.754 49.5265 351.498 49.5265C348.242 49.5265 345.117 48.2305 342.815 45.9233C340.512 43.6161 339.22 40.4869 339.22 37.2239C339.2 34.7845 339.911 32.3949 341.262 30.3654C342.613 28.3357 344.542 26.7596 346.798 25.8407C349.054 24.922 351.532 24.7032 353.914 25.2125C356.294 25.7219 358.47 26.936 360.153 28.6974C361.293 29.8051 362.203 31.1298 362.824 32.5941C363.446 34.0583 363.77 35.6326 363.776 37.2239Z" fill="#002D72"/>
<path d="M174.787 0H187.649V33.3751L202.553 14.8605H219.743L200.851 37.7115L219.913 60.4164H202.65L188.062 40.4886L187.795 60.4164H174.787V0Z" fill="#002D72"/>
<path d="M104.28 23.2892C108.057 21.1085 112.345 19.9734 116.704 20.0004C118.703 20.0063 120.695 20.2517 122.636 20.7313C120.328 18.1835 117.513 16.1477 114.372 14.7545C111.232 13.3613 107.836 12.6416 104.401 12.6416C100.967 12.6416 97.5704 13.3613 94.4301 14.7545C91.2895 16.1477 88.4749 18.1835 86.1663 20.7313C88.1155 20.2497 90.1154 20.0044 92.1231 20.0004C96.3913 20.0205 100.581 21.1539 104.28 23.2892Z" fill="#FFC400"/>
<path d="M80.6955 30.4033C79.7733 33.5981 79.5036 36.9466 79.903 40.2481C80.3021 43.5496 81.362 46.7367 83.019 49.6182C84.6761 52.4999 86.8962 55.0171 89.5466 57.0189C92.197 59.0207 95.2231 60.4666 98.4441 61.2692C94.4097 56.7706 92.1607 50.9465 92.1228 44.8984C86.5963 41.7175 82.5042 36.5269 80.6955 30.4033Z" fill="#FF4807"/>
<path d="M92.1223 44.8982V44.6788C92.1032 40.3595 93.216 36.1107 95.3492 32.3571C97.4824 28.6035 100.562 25.4769 104.279 23.2895C100.58 21.1542 96.3908 20.0208 92.1223 20.0007C90.1229 20.0066 88.1312 20.252 86.1898 20.7316C83.6708 23.5275 81.8171 26.8593 80.768 30.4762C82.5753 36.5602 86.6381 41.7204 92.1223 44.8982Z" fill="#FF95AF"/>
<path d="M116.704 44.8984C116.667 50.9599 114.389 56.7926 110.31 61.2692C113.531 60.4666 116.557 59.0207 119.208 57.0189C121.858 55.0171 124.078 52.4999 125.735 49.6182C127.392 46.7367 128.452 43.5496 128.851 40.2481C129.251 36.9466 128.981 33.5981 128.059 30.4033C126.284 36.5227 122.215 41.717 116.704 44.8984Z" fill="#0A78FF"/>
<path d="M116.703 20.0012C112.344 19.9742 108.056 21.1093 104.279 23.29C108.028 25.4559 111.141 28.5733 113.305 32.3282C115.469 36.0833 116.607 40.3432 116.605 44.6793V44.8987C122.116 41.717 126.185 36.523 127.96 30.4036C126.921 26.7823 125.066 23.4484 122.538 20.659C120.625 20.2116 118.667 19.9909 116.703 20.0012Z" fill="#00B250"/>
<path d="M104.279 48.2113C100.006 48.1963 95.8133 47.0535 92.122 44.8982C92.1803 50.9556 94.4556 56.781 98.5165 61.269C102.412 62.2437 106.486 62.2437 110.381 61.269C114.46 56.7921 116.738 50.9597 116.776 44.8982C112.985 47.1124 108.667 48.257 104.279 48.2113Z" fill="#BD17A5"/>
<path d="M92.1223 44.6784V44.8978C95.8692 47.068 100.121 48.2109 104.449 48.2109C108.777 48.2109 113.029 47.068 116.776 44.8978V44.6784C116.761 40.3255 115.597 36.0542 113.402 32.2978C111.207 28.5411 108.06 25.4332 104.279 23.2891C100.562 25.4764 97.4824 28.6031 95.3492 32.3567C93.2159 36.1103 92.1032 40.3589 92.1223 44.6784Z" fill="#002D72"/>
</g>
</svg>
