<svg width="147" height="24" viewBox="0 0 147 24" fill="none" xmlns="http://www.w3.org/2000/svg">
<g clip-path="url(#clip0_2614_101)">
<path d="M21.4255 16.5879L17.4271 5.26221H13.1175L9.05303 16.5879L5.56384 5.26221H0L6.47858 23.4437H11.5332L15.277 12.4386L19.1622 23.4437H23.9999L30.5445 5.26221H24.943L21.4255 16.5879Z" fill="#002D72"/>
<path d="M58.0618 6.40306V5.262H53.092V23.4435H58.0618V14.2584C58.0618 12.5233 58.4013 11.5425 59.2217 10.873C60.2119 10.0809 61.9659 9.70364 64.7572 9.70364H64.9647V4.91309H64.7855C61.4001 4.91309 59.7026 5.2903 58.0618 6.40306Z" fill="#002D72"/>
<path d="M99.1965 6.39363C97.8032 5.39942 96.1267 4.88029 94.4154 4.91308C91.8666 4.90502 89.4172 5.90105 87.5973 7.68557C86.7034 8.56336 85.9934 9.61046 85.5087 10.7657C85.0241 11.921 84.7744 13.1612 84.7744 14.414C84.7744 15.6669 85.0241 16.9071 85.5087 18.0624C85.9934 19.2176 86.7034 20.2647 87.5973 21.1425C88.4932 22.0401 89.5575 22.752 90.7291 23.2375C91.9007 23.7229 93.1566 23.9724 94.4248 23.9716C96.1349 24.016 97.813 23.5029 99.2059 22.5099V23.4529H104.176V5.262H99.1965V6.39363ZM97.8008 11.1087C98.2402 11.5392 98.5899 12.0526 98.8294 12.6192C99.069 13.1857 99.1938 13.7942 99.1965 14.4093C99.1939 15.0287 99.0693 15.6414 98.8298 16.2126C98.5903 16.7838 98.2407 17.3022 97.8008 17.7382C97.3597 18.1883 96.8328 18.5453 96.2513 18.7883C95.6698 19.0312 95.0455 19.1552 94.4154 19.1527C93.1701 19.1357 91.9807 18.6334 91.1002 17.7528C90.2196 16.8722 89.7173 15.6828 89.7002 14.4376C89.6926 13.4932 89.9686 12.5683 90.4927 11.7827C91.0168 10.997 91.7647 10.3869 92.6396 10.0312C93.5145 9.67557 94.476 9.59085 95.3996 9.78801C96.3232 9.98518 97.1663 10.4551 97.8197 11.137L97.8008 11.1087Z" fill="#002D72"/>
<path d="M122.263 6.79937C120.835 5.51208 118.96 4.83508 117.039 4.91333C115.406 4.8614 113.807 5.3855 112.522 6.39387V5.26224H107.542V23.4437H112.522V13.6552C112.465 13.0744 112.533 12.4883 112.72 11.9355C112.906 11.3828 113.209 10.8761 113.606 10.4489C114.316 9.95815 115.158 9.69527 116.02 9.69527C116.883 9.69527 117.725 9.95815 118.434 10.4489C118.834 10.886 119.138 11.4025 119.324 11.9647C119.511 12.5269 119.578 13.1222 119.519 13.7117V23.4249H124.498V12.9856C124.575 11.8558 124.417 10.7223 124.032 9.65723C123.647 8.59217 123.045 7.6189 122.263 6.79937Z" fill="#002D72"/>
<path d="M141.095 5.262V6.39363C139.702 5.39942 138.025 4.88029 136.314 4.91308C133.762 4.89592 131.308 5.88928 129.486 7.67614C128.593 8.55393 127.883 9.60103 127.398 10.7563C126.913 11.9115 126.664 13.1518 126.664 14.4046C126.664 15.6574 126.913 16.8977 127.398 18.0529C127.883 19.2082 128.593 20.2553 129.486 21.1331C130.382 22.0307 131.447 22.7426 132.618 23.228C133.79 23.7135 135.046 23.963 136.314 23.9621C138.024 24.0052 139.702 23.4923 141.095 22.5005V23.4435H146.065V5.262H141.095ZM141.095 14.4093C141.095 15.6724 140.593 16.8837 139.7 17.7768C138.807 18.6699 137.596 19.1716 136.333 19.1716C135.07 19.1716 133.858 18.6699 132.965 17.7768C132.072 16.8837 131.571 15.6724 131.571 14.4093C131.563 13.465 131.839 12.54 132.363 11.7544C132.887 10.9687 133.635 10.3586 134.51 10.0029C135.385 9.64728 136.346 9.56256 137.27 9.75972C138.193 9.95689 139.037 10.4269 139.69 11.1087C140.132 11.5375 140.485 12.0503 140.726 12.6171C140.967 13.1839 141.093 13.7933 141.095 14.4093Z" fill="#002D72"/>
<path d="M67.7935 0H72.782V12.9194L78.5628 5.75244H85.23L77.9027 14.598L85.296 23.387H78.6005L72.9424 15.673L72.8386 23.387H67.7935V0Z" fill="#002D72"/>
<path d="M40.4462 9.0152C41.9112 8.17105 43.5743 7.73168 45.265 7.74212C46.0405 7.74441 46.813 7.83938 47.566 8.02503C46.6706 7.03879 45.5788 6.25073 44.3608 5.71144C43.1427 5.17215 41.8254 4.89355 40.4933 4.89355C39.1613 4.89355 37.8439 5.17215 36.6259 5.71144C35.4078 6.25073 34.3161 7.03879 33.4207 8.02503C34.1767 7.83863 34.9524 7.74365 35.7311 7.74212C37.3866 7.74989 39.0117 8.18864 40.4462 9.0152Z" fill="#FFC400"/>
<path d="M31.2988 11.769C30.9411 13.0057 30.8365 14.3019 30.9914 15.5799C31.1462 16.8579 31.5573 18.0916 32.2 19.207C32.8427 20.3225 33.7038 21.2969 34.7318 22.0718C35.7598 22.8467 36.9335 23.4064 38.1828 23.7171C36.618 21.9757 35.7457 19.7212 35.731 17.38C33.5875 16.1487 32.0003 14.1394 31.2988 11.769Z" fill="#FF4807"/>
<path d="M35.7308 17.3799V17.295C35.7234 15.623 36.155 13.9783 36.9824 12.5253C37.8098 11.0723 39.0041 9.862 40.4459 9.01527C39.0114 8.18871 37.3864 7.74995 35.7308 7.74219C34.9553 7.74447 34.1828 7.83945 33.4298 8.02509C32.4528 9.10738 31.7338 10.3971 31.3269 11.7972C32.0279 14.1523 33.6037 16.1498 35.7308 17.3799Z" fill="#FF95AF"/>
<path d="M45.2653 17.38C45.2507 19.7264 44.3671 21.9842 42.7852 23.7171C44.0345 23.4064 45.2082 22.8467 46.2362 22.0718C47.2642 21.2969 48.1253 20.3225 48.768 19.207C49.4107 18.0916 49.8218 16.8579 49.9766 15.5799C50.1315 14.3019 50.0269 13.0057 49.6692 11.769C48.9808 14.1378 47.4027 16.1485 45.2653 17.38Z" fill="#0A78FF"/>
<path d="M45.2646 7.74237C43.5739 7.73193 41.9108 8.1713 40.4458 9.01545C41.8999 9.85386 43.1074 11.0606 43.9467 12.5141C44.7861 13.9677 45.2276 15.6167 45.2269 17.2952V17.3801C47.3643 16.1485 48.9424 14.1379 49.6309 11.7691C49.2279 10.3673 48.5085 9.07675 47.5279 7.99699C46.786 7.82383 46.0264 7.73837 45.2646 7.74237Z" fill="#00B250"/>
<path d="M40.4458 18.6624C38.7887 18.6566 37.1624 18.2142 35.7307 17.3799C35.7533 19.7247 36.6358 21.9797 38.2109 23.717C39.7217 24.0943 41.302 24.0943 42.8128 23.717C44.3948 21.984 45.2784 19.7263 45.293 17.3799C43.8226 18.237 42.1477 18.6801 40.4458 18.6624Z" fill="#BD17A5"/>
<path d="M35.7308 17.2949V17.3798C37.1841 18.2199 38.8332 18.6623 40.5119 18.6623C42.1907 18.6623 43.8397 18.2199 45.2931 17.3798V17.2949C45.2871 15.6099 44.8356 13.9565 43.9843 12.5024C43.133 11.0482 41.9123 9.84514 40.4459 9.01514C39.0041 9.86187 37.8098 11.0722 36.9824 12.5252C36.155 13.9782 35.7234 15.6228 35.7308 17.2949Z" fill="#002D72"/>
</g>
<defs>
<clipPath id="clip0_2614_101">
<rect width="146.065" height="24" fill="white"/>
</clipPath>
</defs>
</svg>
