<svg width="314" height="87" viewBox="0 0 314 87" fill="none" xmlns="http://www.w3.org/2000/svg">
<path d="M86.083 59.2101C77.3252 59.2101 71.5273 52.438 69.91 49.8146C71.985 33.2199 78.0575 27.9731 86.083 27.9731C94.1085 27.9731 100.181 34.3181 100.181 43.5916C100.181 52.8651 94.0169 59.2101 86.083 59.2101ZM86.083 17.7844C71.8019 17.7844 63.807 27.0884 61.5184 36.667C58.9246 31.7862 57.0021 25.2581 55.5069 19.1877H35.7637V43.7441C35.7637 52.6515 31.7052 59.2406 23.7712 59.2406C15.8373 59.2406 11.2906 52.6515 11.2906 43.7441L11.3821 19.1877H0V43.7441C0 50.9128 2.31914 57.4103 6.56074 62.047C10.9244 66.8363 16.8748 69.3377 23.7712 69.3377C37.503 69.3377 47.0847 58.8135 47.0847 43.7441V27.2409C48.519 32.6708 51.9366 43.1035 58.4669 52.255L52.3638 87.0001H63.9291L67.957 62.3826C69.2692 63.4808 70.6729 64.4569 72.1681 65.3416C76.0435 67.782 80.4682 69.1547 85.0455 69.3072C85.0455 69.3072 85.7473 69.3377 86.1135 69.3377C100.272 69.3377 111.533 58.3865 111.533 43.5916C111.533 28.7967 100.242 17.7844 86.083 17.7844Z" fill="white"/>
<path d="M249.613 24.4344V19.1876H238.445V67.7819H249.766V48.7468C249.766 37.0329 250.834 28.6136 266.549 29.7118V18.608C259.225 18.0589 253.519 19.5841 249.613 24.4344Z" fill="white"/>
<path d="M171.006 19.1875L162.798 53.17L154.04 19.1875H139.637L130.849 53.17L122.671 19.1875H111.197L123.769 67.8123H137.379L146.838 33.2808L156.207 67.8123H169.816L183.121 19.1875H171.006Z" fill="white"/>
<path d="M208.052 59.2406C199.996 59.2406 193.954 52.8956 193.954 43.5916C193.954 34.2876 200.026 27.9731 208.052 27.9731C216.077 27.9731 222.15 34.3181 222.15 43.5916C222.15 52.8651 215.986 59.2406 208.052 59.2406ZM208.052 17.7844C193.801 17.7844 182.633 28.8272 182.633 43.5916C182.633 58.3559 193.801 69.3072 208.052 69.3072C222.302 69.3072 233.471 58.3559 233.471 43.5916C233.471 28.8272 222.241 17.7844 208.052 17.7844Z" fill="white"/>
<path d="M282.783 43.8966H285.407L301.214 67.8124H314L295.813 41.3036C304.632 37.8566 310.552 28.8576 310.552 19.1876H299.261C299.261 29.6813 290.992 33.6469 282.783 33.6469V0H271.432V67.8124H282.753L282.783 43.8966Z" fill="white"/>
</svg>
