<svg width="108" height="108" viewBox="0 0 108 108" fill="none" xmlns="http://www.w3.org/2000/svg">
<rect width="88.1633" height="88.1633" transform="translate(9.91821 9.91837)" fill="white"/>
<path d="M13.5 0H94.5C101.949 0 108 6.05089 108 13.5V94.5C108 101.949 101.949 108 94.5 108H13.5C6.05089 108 0 101.949 0 94.5V13.5C0 6.05089 6.05089 0 13.5 0ZM65.3063 58.3875C66.8973 45.6348 71.55 41.633 77.6973 41.633C83.7964 41.633 88.5214 46.5027 88.5214 53.6143C88.5214 60.7259 83.7723 65.5955 77.6973 65.5955C70.9714 65.5955 66.5357 60.4125 65.3063 58.3875ZM58.8696 48.3107C56.8929 44.5741 55.4223 39.5598 54.2411 34.9071H39.0777V53.7348C39.0777 60.5812 35.9679 65.6437 29.8687 65.6437C23.7696 65.6437 20.2741 60.6054 20.2741 53.7589L20.3464 34.9312H11.6196V53.7589C11.6196 59.2554 13.4036 64.2455 16.658 67.7893C20.0089 71.4536 24.5652 73.3821 29.8687 73.3821C40.4036 73.3821 47.7563 65.3063 47.7563 53.7348V41.0786C48.8652 45.2491 51.4688 53.2527 56.483 60.292L51.8304 86.9304H60.7018L63.7875 68.0304C64.8 68.8741 65.8848 69.6214 67.0179 70.2964C69.983 72.1768 73.3821 73.2375 76.8777 73.3339H77.6973C88.5696 73.3339 97.2 64.9205 97.2 53.5902C97.2 42.2598 88.5455 33.7741 77.6973 33.7741C66.7527 33.7741 60.6054 40.9339 58.8696 48.2625V48.3107Z" fill="black"/>
</svg>
