<?xml version="1.0" encoding="UTF-8"?>
<svg id="Layer_1" data-name="Layer 1" xmlns="http://www.w3.org/2000/svg" viewBox="0 0 1029 285.2">
  <defs>
    <style>
      .cls-1 {
        fill: #000;
        stroke-width: 0px;
      }
    </style>
  </defs>
  <g id="Layer_2" data-name="Layer 2">
    <g id="Layer_1-2" data-name="Layer 1-2">
      <path class="cls-1" d="M282.1,194.1c-28.7,0-47.7-22.2-53-30.8,6.8-54.4,26.7-71.6,53-71.6s46.2,20.8,46.2,51.2-20.2,51.2-46.2,51.2M282.1,58.3c-46.8,0-73,30.5-80.5,61.9-8.5-16-14.8-37.4-19.7-57.3h-64.7v80.5c0,29.2-13.3,50.8-39.3,50.8s-40.9-21.6-40.9-50.8l.3-80.5H0v80.5c0,23.5,7.6,44.8,21.5,60,14.3,15.7,33.8,23.9,56.4,23.9,45,0,76.4-34.5,76.4-83.9v-54.1c4.7,17.8,15.9,52,37.3,82l-20,113.9h37.9l13.2-80.7c4.3,3.6,8.9,6.8,13.8,9.7,12.7,8,27.2,12.5,42.2,13,0,0,2.3.1,3.5.1,46.4,0,83.3-35.9,83.3-84.4s-37-84.6-83.4-84.6"/>
      <path class="cls-1" d="M818,80.1v-17.2h-36.6v159.3h37.1v-62.4c0-38.4,3.5-66,55-62.4v-36.4c-24-1.8-42.7,3.2-55.5,19.1"/>
      <polygon class="cls-1" points="560.4 62.9 533.5 174.3 504.8 62.9 457.6 62.9 428.8 174.3 402 62.9 364.4 62.9 405.6 222.3 450.2 222.3 481.2 109.1 511.9 222.3 556.5 222.3 600.1 62.9 560.4 62.9"/>
      <path class="cls-1" d="M681.8,194.2c-26.4,0-46.2-20.8-46.2-51.3s19.9-51.2,46.2-51.2,46.2,20.8,46.2,51.2-20.2,51.3-46.2,51.3M681.8,58.3c-46.7,0-83.3,36.2-83.3,84.6s36.6,84.3,83.3,84.3,83.3-35.9,83.3-84.3-36.8-84.6-83.3-84.6"/>
      <path class="cls-1" d="M926.7,143.9h8.6l51.8,78.4h41.9l-59.6-86.9c28.9-11.3,48.3-40.8,48.3-72.5h-37c0,34.4-27.1,47.4-54,47.4V0h-37.2v222.3h37.1l.1-78.4Z"/>
    </g>
  </g>
</svg>