<svg width="171" height="37" viewBox="0 0 171 37" fill="none" xmlns="http://www.w3.org/2000/svg">
<g clip-path="url(#clip0_127_9)">
<g filter="url(#filter0_d_127_9)">
<path d="M16.93 21.15L5.86 16.8C4.62 16.32 4 15.44 4 14.16C4 13.52 4.15 12.99 4.45 12.57C4.77 12.15 5.24 11.82 5.86 11.58L16.93 7.22996C17.41 7.04996 17.83 7.01996 18.19 7.13996C18.55 7.25996 18.83 7.47996 19.03 7.79996C19.25 8.09996 19.37 8.43996 19.39 8.81996C19.43 9.19996 19.35 9.55996 19.15 9.89996C18.97 10.22 18.65 10.47 18.19 10.65L5.56 15.51V12.9L18.19 17.76C18.65 17.94 18.97 18.2 19.15 18.54C19.35 18.86 19.43 19.21 19.39 19.59C19.37 19.95 19.25 20.29 19.03 20.61C18.83 20.91 18.55 21.12 18.19 21.24C17.83 21.36 17.41 21.33 16.93 21.15ZM24.4183 23.46C24.2383 23.98 23.9683 24.36 23.6083 24.6C23.2483 24.84 22.8583 24.95 22.4383 24.93C22.0183 24.93 21.6283 24.82 21.2683 24.6C20.9283 24.4 20.6783 24.09 20.5183 23.67C20.3583 23.27 20.3583 22.8 20.5183 22.26L27.1783 1.49996C27.3383 0.979957 27.5983 0.599957 27.9583 0.359958C28.3383 0.119958 28.7283 0.00995681 29.1283 0.0299565C29.5483 0.0299565 29.9383 0.139957 30.2983 0.359958C30.6583 0.559958 30.9183 0.859958 31.0783 1.25996C31.2383 1.65996 31.2283 2.13996 31.0483 2.69996L24.4183 23.46ZM38.0791 23.07C37.3991 23.07 36.8091 22.91 36.3091 22.59C35.8091 22.25 35.4091 21.73 35.1091 21.03L31.0291 11.16C30.7691 10.54 30.6791 9.97996 30.7591 9.47996C30.8391 8.95996 31.0791 8.54996 31.4791 8.24996C31.8991 7.92996 32.4691 7.76996 33.1891 7.76996C33.8091 7.76996 34.3191 7.91996 34.7191 8.21996C35.1191 8.49996 35.4791 9.05996 35.7991 9.89996L38.6791 17.46H38.0491L41.0791 9.32996C41.2791 8.78996 41.5491 8.39996 41.8891 8.15996C42.2491 7.89996 42.6991 7.76996 43.2391 7.76996C43.8191 7.76996 44.2791 7.89996 44.6191 8.15996C44.9591 8.41996 45.2291 8.80996 45.4291 9.32996L48.4591 17.46H47.9191L50.8291 9.71996C51.1091 8.95996 51.4691 8.44996 51.9091 8.18996C52.3491 7.90996 52.8191 7.76996 53.3191 7.76996C53.9991 7.76996 54.5191 7.92996 54.8791 8.24996C55.2391 8.56996 55.4391 8.98996 55.4791 9.50996C55.5391 10.03 55.4391 10.59 55.1791 11.19L51.1291 21C50.8491 21.7 50.4591 22.22 49.9591 22.56C49.4591 22.9 48.8691 23.07 48.1891 23.07C47.4891 23.07 46.8891 22.9 46.3891 22.56C45.9091 22.22 45.5191 21.7 45.2191 21L41.9191 12.75H44.1091L40.9891 20.94C40.7091 21.66 40.3291 22.2 39.8491 22.56C39.3691 22.9 38.7791 23.07 38.0791 23.07ZM64.7931 23.13C63.1531 23.13 61.7231 22.82 60.5031 22.2C59.2831 21.58 58.3331 20.69 57.6531 19.53C56.9731 18.37 56.6331 17 56.6331 15.42C56.6331 14.22 56.8231 13.15 57.2031 12.21C57.5831 11.25 58.1331 10.44 58.8531 9.77996C59.5731 9.09996 60.4331 8.58996 61.4331 8.24996C62.4331 7.88996 63.5531 7.70996 64.7931 7.70996C66.4331 7.70996 67.8631 8.01996 69.0831 8.63996C70.3031 9.25996 71.2431 10.15 71.9031 11.31C72.5831 12.45 72.9231 13.82 72.9231 15.42C72.9231 16.6 72.7331 17.67 72.3531 18.63C71.9731 19.59 71.4231 20.41 70.7031 21.09C70.0031 21.75 69.1431 22.26 68.1231 22.62C67.1231 22.96 66.0131 23.13 64.7931 23.13ZM64.7931 19.2C65.3331 19.2 65.8131 19.07 66.2331 18.81C66.6531 18.53 66.9731 18.12 67.1931 17.58C67.4331 17.02 67.5531 16.3 67.5531 15.42C67.5531 14.08 67.2931 13.12 66.7731 12.54C66.2531 11.94 65.5931 11.64 64.7931 11.64C64.2531 11.64 63.7731 11.77 63.3531 12.03C62.9331 12.29 62.6031 12.7 62.3631 13.26C62.1231 13.8 62.0031 14.52 62.0031 15.42C62.0031 16.74 62.2631 17.7 62.7831 18.3C63.3031 18.9 63.9731 19.2 64.7931 19.2ZM78.1 23.07C77.22 23.07 76.54 22.84 76.06 22.38C75.6 21.92 75.37 21.25 75.37 20.37V10.44C75.37 9.57996 75.59 8.91996 76.03 8.45996C76.49 7.99996 77.14 7.76996 77.98 7.76996C78.82 7.76996 79.46 7.99996 79.9 8.45996C80.34 8.91996 80.56 9.57996 80.56 10.44V11.67H80.26C80.46 10.47 80.97 9.51996 81.79 8.81996C82.63 8.11996 83.67 7.74996 84.91 7.70996C85.49 7.68996 85.92 7.83996 86.2 8.15996C86.5 8.45996 86.66 9.02996 86.68 9.86996C86.68 10.59 86.53 11.16 86.23 11.58C85.93 12 85.36 12.25 84.52 12.33L83.83 12.39C82.77 12.49 82 12.79 81.52 13.29C81.04 13.77 80.8 14.49 80.8 15.45V20.37C80.8 21.25 80.57 21.92 80.11 22.38C79.65 22.84 78.98 23.07 78.1 23.07ZM91.0178 23.07C90.1778 23.07 89.5278 22.84 89.0678 22.38C88.6078 21.92 88.3778 21.25 88.3778 20.37V4.07996C88.3778 3.19996 88.6078 2.52996 89.0678 2.06996C89.5278 1.60996 90.1778 1.37996 91.0178 1.37996C91.8778 1.37996 92.5378 1.60996 92.9978 2.06996C93.4778 2.52996 93.7178 3.19996 93.7178 4.07996V13.98H93.7778L97.4378 9.53996C97.9378 8.93996 98.3978 8.49996 98.8178 8.21996C99.2578 7.91996 99.8478 7.76996 100.588 7.76996C101.328 7.76996 101.898 7.94996 102.298 8.30996C102.698 8.66996 102.908 9.11996 102.928 9.65996C102.948 10.2 102.728 10.74 102.268 11.28L98.3078 15.96V14.1L102.748 19.68C103.188 20.24 103.368 20.79 103.288 21.33C103.208 21.85 102.948 22.27 102.508 22.59C102.088 22.91 101.548 23.07 100.888 23.07C100.088 23.07 99.4478 22.93 98.9678 22.65C98.4878 22.35 98.0078 21.89 97.5278 21.27L93.7778 16.65H93.7178V20.37C93.7178 22.17 92.8178 23.07 91.0178 23.07ZM108.42 23.07C107.58 23.07 106.93 22.82 106.47 22.32C106.01 21.82 105.78 21.1 105.78 20.16V10.68C105.78 9.73996 106.01 9.01996 106.47 8.51996C106.93 8.01996 107.58 7.76996 108.42 7.76996C109.28 7.76996 109.94 8.01996 110.4 8.51996C110.88 9.01996 111.12 9.73996 111.12 10.68V20.16C111.12 21.1 110.89 21.82 110.43 22.32C109.97 22.82 109.3 23.07 108.42 23.07ZM108.42 5.63996C107.48 5.63996 106.75 5.41996 106.23 4.97996C105.73 4.53996 105.48 3.89996 105.48 3.05996C105.48 2.23996 105.73 1.60996 106.23 1.16996C106.75 0.729958 107.48 0.509958 108.42 0.509958C109.4 0.509958 110.14 0.729958 110.64 1.16996C111.14 1.60996 111.39 2.23996 111.39 3.05996C111.39 3.89996 111.14 4.53996 110.64 4.97996C110.14 5.41996 109.4 5.63996 108.42 5.63996ZM116.858 23.07C116.018 23.07 115.368 22.84 114.908 22.38C114.448 21.92 114.218 21.25 114.218 20.37V10.44C114.218 9.57996 114.438 8.91996 114.878 8.45996C115.338 7.99996 115.988 7.76996 116.828 7.76996C117.668 7.76996 118.308 7.99996 118.748 8.45996C119.188 8.91996 119.408 9.57996 119.408 10.44V11.85L119.078 10.62C119.558 9.67996 120.238 8.95996 121.118 8.45996C122.018 7.95996 123.038 7.70996 124.178 7.70996C125.358 7.70996 126.328 7.93996 127.088 8.39996C127.848 8.83996 128.418 9.53996 128.798 10.5C129.178 11.44 129.368 12.63 129.368 14.07V20.37C129.368 21.25 129.138 21.92 128.678 22.38C128.218 22.84 127.558 23.07 126.698 23.07C125.838 23.07 125.178 22.84 124.718 22.38C124.258 21.92 124.028 21.25 124.028 20.37V14.28C124.028 13.38 123.868 12.74 123.548 12.36C123.248 11.98 122.798 11.79 122.198 11.79C121.398 11.79 120.758 12.05 120.278 12.57C119.798 13.07 119.558 13.75 119.558 14.61V20.37C119.558 22.17 118.658 23.07 116.858 23.07ZM139.731 28.53C138.631 28.53 137.601 28.45 136.641 28.29C135.681 28.15 134.851 27.94 134.151 27.66C133.571 27.46 133.161 27.17 132.921 26.79C132.681 26.41 132.571 26.01 132.591 25.59C132.611 25.17 132.721 24.79 132.921 24.45C133.141 24.11 133.431 23.86 133.791 23.7C134.151 23.56 134.551 23.57 134.991 23.73C135.871 24.09 136.671 24.32 137.391 24.42C138.111 24.54 138.721 24.6 139.221 24.6C140.441 24.6 141.351 24.34 141.951 23.82C142.571 23.32 142.881 22.53 142.881 21.45V19.56H143.121C142.821 20.4 142.211 21.09 141.291 21.63C140.371 22.15 139.371 22.41 138.291 22.41C136.971 22.41 135.821 22.11 134.841 21.51C133.861 20.89 133.091 20.03 132.531 18.93C131.991 17.83 131.721 16.54 131.721 15.06C131.721 13.94 131.881 12.93 132.201 12.03C132.521 11.13 132.961 10.36 133.521 9.71996C134.101 9.07996 134.791 8.58996 135.591 8.24996C136.411 7.88996 137.311 7.70996 138.291 7.70996C139.411 7.70996 140.411 7.96996 141.291 8.48996C142.191 9.00996 142.791 9.68996 143.091 10.53L142.791 11.76V10.44C142.791 9.57996 143.021 8.91996 143.481 8.45996C143.961 7.99996 144.621 7.76996 145.461 7.76996C146.301 7.76996 146.941 7.99996 147.381 8.45996C147.841 8.91996 148.071 9.57996 148.071 10.44V20.82C148.071 23.38 147.351 25.3 145.911 26.58C144.471 27.88 142.411 28.53 139.731 28.53ZM139.941 18.48C140.541 18.48 141.051 18.35 141.471 18.09C141.891 17.81 142.221 17.42 142.461 16.92C142.701 16.4 142.821 15.78 142.821 15.06C142.821 13.98 142.561 13.14 142.041 12.54C141.521 11.94 140.821 11.64 139.941 11.64C139.381 11.64 138.881 11.78 138.441 12.06C138.001 12.32 137.661 12.71 137.421 13.23C137.201 13.73 137.091 14.34 137.091 15.06C137.091 16.14 137.351 16.98 137.871 17.58C138.391 18.18 139.081 18.48 139.941 18.48ZM153.26 21.15C152.78 21.33 152.36 21.36 152 21.24C151.66 21.12 151.38 20.91 151.16 20.61C150.94 20.29 150.82 19.95 150.8 19.59C150.78 19.21 150.86 18.86 151.04 18.54C151.24 18.2 151.56 17.94 152 17.76L164.66 12.9V15.51L152 10.65C151.56 10.47 151.24 10.22 151.04 9.89996C150.86 9.55996 150.78 9.19996 150.8 8.81996C150.82 8.43996 150.94 8.09996 151.16 7.79996C151.38 7.47996 151.66 7.25996 152 7.13996C152.36 7.01996 152.78 7.04996 153.26 7.22996L164.33 11.58C165.57 12.06 166.19 12.92 166.19 14.16C166.19 14.8 166.04 15.34 165.74 15.78C165.44 16.2 164.97 16.54 164.33 16.8L153.26 21.15Z" fill="#F5D12D"/>
</g>
</g>
<defs>
<filter id="filter0_d_127_9" x="0" y="0.0276489" width="170.19" height="36.5023" filterUnits="userSpaceOnUse" color-interpolation-filters="sRGB">
<feFlood flood-opacity="0" result="BackgroundImageFix"/>
<feColorMatrix in="SourceAlpha" type="matrix" values="0 0 0 0 0 0 0 0 0 0 0 0 0 0 0 0 0 0 127 0" result="hardAlpha"/>
<feOffset dy="4"/>
<feGaussianBlur stdDeviation="2"/>
<feComposite in2="hardAlpha" operator="out"/>
<feColorMatrix type="matrix" values="0 0 0 0 0 0 0 0 0 0 0 0 0 0 0 0 0 0 0.25 0"/>
<feBlend mode="normal" in2="BackgroundImageFix" result="effect1_dropShadow_127_9"/>
<feBlend mode="normal" in="SourceGraphic" in2="effect1_dropShadow_127_9" result="shape"/>
</filter>
<clipPath id="clip0_127_9">
<rect width="171" height="37" fill="white"/>
</clipPath>
</defs>
</svg>
