<svg width="140" height="141" viewBox="0 0 140 141" fill="none" xmlns="http://www.w3.org/2000/svg">
<path d="M69.6421 75.0742L86.0304 88.7185C86.564 89.0996 87.0976 89.3283 87.7074 89.3283C88.4696 89.3283 89.2319 89.0234 89.7654 88.3373C90.6801 87.194 90.5277 85.517 89.4605 84.6023L73.0722 70.9581C72.7673 70.7294 72.6149 70.2721 72.7673 69.8909L80.8471 36.6569C81.2283 35.2087 80.3136 33.7604 78.8653 33.4555C77.417 33.0744 75.9687 33.9891 75.6638 35.4374L67.584 68.6713C66.9742 71.0343 67.8127 73.5497 69.6421 75.0742Z" fill="#2D3748"/>
<path d="M108.745 11.6552C78.7129 -8.31567 37.9326 -2.06524 15.3701 26.1379C4.01257 40.3157 -0.865812 57.3901 0.125109 74.0833C0.201334 75.5316 1.42093 76.5225 2.8692 76.4463C4.16502 76.2938 5.15594 75.1505 5.07972 73.8546C4.16502 58.9146 8.43361 43.5172 18.2666 30.6352C38.9235 3.49917 77.5695 -3.05616 106.001 15.9238C136.872 36.4283 144.19 78.4281 122.695 108.156C101.885 136.893 61.7909 143.6 32.8255 123.401L35.9507 119.132C36.5605 118.294 35.5696 116.845 34.2738 116.769L19.8673 115.626C18.8002 115.55 18.1904 116.388 18.5715 117.379L24.1359 130.642C24.6695 131.862 26.3464 132.319 26.9562 131.481L29.929 127.441C61.1049 149.241 104.324 142.076 126.734 111.129C149.907 79.0379 141.979 33.8366 108.745 11.6552Z" fill="#2D3748"/>
<path d="M73.1485 25.0708V15.3902C73.1485 13.942 71.9289 12.7224 70.4806 12.7224C69.0323 12.7224 67.8127 13.942 67.8127 15.3902V24.9946C67.8127 26.4428 69.0323 27.6624 70.4806 27.6624C71.9289 27.7387 73.1485 26.5191 73.1485 25.0708Z" fill="#2D3748"/>
<path d="M67.8127 115.626V125.23C67.8127 126.678 69.0323 127.898 70.4806 127.898C71.9289 127.898 73.1485 126.678 73.1485 125.23V115.626C73.1485 114.178 71.9289 112.958 70.4806 112.958C68.9561 112.958 67.8127 114.101 67.8127 115.626Z" fill="#2D3748"/>
<path d="M113.09 70.3483C113.09 71.7966 114.31 73.0162 115.758 73.0162H125.362C126.811 73.0162 128.03 71.7966 128.03 70.3483C128.03 68.9 126.811 67.6804 125.362 67.6804H115.758C114.234 67.6804 113.09 68.8238 113.09 70.3483Z" fill="#2D3748"/>
<path d="M27.7947 70.3483C27.7947 68.9 26.5751 67.6804 25.1268 67.6804H15.5225C14.0742 67.6804 12.8546 68.9 12.8546 70.3483C12.8546 71.7966 14.0742 73.0162 15.5225 73.0162H25.1268C26.6513 73.0162 27.7947 71.7966 27.7947 70.3483Z" fill="#2D3748"/>
<path d="M45.0215 31.6261C45.4788 32.4646 46.3935 32.9981 47.3082 32.9981C47.7656 32.9981 48.2229 32.8457 48.6041 32.617C49.8999 31.8548 50.281 30.2541 49.595 28.9582L47.918 25.9855C47.1558 24.6896 45.5551 24.3085 44.2592 24.9945C42.9634 25.7568 42.5823 27.3575 43.2683 28.6533L45.0215 31.6261Z" fill="#2D3748"/>
<path d="M91.2899 111.738L92.9668 114.711C93.4242 115.55 94.3389 116.083 95.2536 116.083C95.7109 116.083 96.1683 115.931 96.5494 115.702C97.8452 114.94 98.2264 113.339 97.5403 112.043L95.8634 109.07C95.1011 107.775 93.5004 107.394 92.2046 108.08C90.985 108.842 90.5276 110.443 91.2899 111.738Z" fill="#2D3748"/>
<path d="M112.099 43.2123L109.126 44.8892C107.831 45.6514 107.45 47.2522 108.136 48.548C108.593 49.3865 109.508 49.92 110.422 49.92C110.88 49.92 111.337 49.7676 111.718 49.5389L114.691 47.862C115.987 47.0997 116.368 45.499 115.682 44.2032C114.996 42.9074 113.395 42.45 112.099 43.2123Z" fill="#2D3748"/>
<path d="M29.0143 91.1577L26.0415 92.8346C24.7457 93.5969 24.3646 95.1976 25.0506 96.4934C25.508 97.3319 26.4227 97.8654 27.3373 97.8654C27.7947 97.8654 28.252 97.713 28.6332 97.4843L31.6059 95.8074C32.9018 95.0451 33.2829 93.4444 32.5969 92.1486C31.9871 90.8528 30.3101 90.3954 29.0143 91.1577Z" fill="#2D3748"/>
<path d="M31.6822 44.8892L28.7094 43.2123C27.4136 42.45 25.8129 42.9074 25.0506 44.2032C24.2884 45.499 24.7457 47.0997 26.0415 47.862L29.0143 49.5389C29.4716 49.7676 29.929 49.92 30.3101 49.92C31.2248 49.92 32.1395 49.4627 32.5969 48.548C33.4353 47.2522 32.978 45.6514 31.6822 44.8892Z" fill="#2D3748"/>
<path d="M109.203 95.7312L112.176 97.4081C112.633 97.6368 113.09 97.7892 113.471 97.7892C114.386 97.7892 115.301 97.3319 115.758 96.4172C116.52 95.1214 116.063 93.5206 114.767 92.7584L111.794 91.0815C110.499 90.3192 108.898 90.7766 108.136 92.0724C107.45 93.3682 107.907 95.0451 109.203 95.7312Z" fill="#2D3748"/>
<path d="M92.2809 32.5408C92.7382 32.7695 93.1956 32.9219 93.5767 32.9219C94.4914 32.9219 95.4061 32.4646 95.8634 31.5499L97.5404 28.5771C98.3026 27.2813 97.8453 25.6806 96.5495 24.9183C95.2536 24.1561 93.6529 24.6134 92.8907 25.9093L91.2137 28.882C90.5277 30.1778 90.985 31.8548 92.2809 32.5408Z" fill="#2D3748"/>
<path d="M44.2593 115.626C44.7166 115.854 45.174 116.007 45.5551 116.007C46.4698 116.007 47.3845 115.55 47.8418 114.635L49.5188 111.662C50.281 110.366 49.8237 108.766 48.5279 108.003C47.232 107.241 45.6313 107.698 44.8691 108.994L43.1921 111.967C42.5823 113.263 43.0397 114.864 44.2593 115.626Z" fill="#2D3748"/>
</svg>
